<mxfile host="app.diagrams.net" agent="Mozilla/5.0 (Windows NT 10.0; Win64; x64) AppleWebKit/537.36 (KHTML, like Gecko) Chrome/126.0.0.0 YaBrowser/24.7.0.0 Safari/537.36" version="24.7.17">
  <diagram name="Страница — 1" id="hSiBeqSM1IHHw422gZMb">
    <mxGraphModel dx="1075" dy="473" grid="1" gridSize="10" guides="1" tooltips="1" connect="1" arrows="1" fold="1" page="1" pageScale="1" pageWidth="827" pageHeight="1169" math="0" shadow="0">
      <root>
        <mxCell id="0" />
        <mxCell id="1" parent="0" />
        <mxCell id="QyRc5C4AdSYWX_pMLUuo-34" style="edgeStyle=orthogonalEdgeStyle;rounded=0;orthogonalLoop=1;jettySize=auto;html=1;endArrow=none;endFill=0;" parent="1" source="QyRc5C4AdSYWX_pMLUuo-20" target="QyRc5C4AdSYWX_pMLUuo-33" edge="1">
          <mxGeometry relative="1" as="geometry" />
        </mxCell>
        <mxCell id="QyRc5C4AdSYWX_pMLUuo-40" value="1" style="edgeLabel;html=1;align=center;verticalAlign=middle;resizable=0;points=[];" parent="QyRc5C4AdSYWX_pMLUuo-34" vertex="1" connectable="0">
          <mxGeometry x="0.2184" y="-2" relative="1" as="geometry">
            <mxPoint y="9" as="offset" />
          </mxGeometry>
        </mxCell>
        <mxCell id="QyRc5C4AdSYWX_pMLUuo-20" value="&lt;font style=&quot;font-size: 14px;&quot;&gt;Library&lt;/font&gt;" style="rounded=0;whiteSpace=wrap;html=1;fillColor=#ffcc99;strokeColor=#36393d;" parent="1" vertex="1">
          <mxGeometry x="250" y="688.5" width="100" height="41" as="geometry" />
        </mxCell>
        <mxCell id="QyRc5C4AdSYWX_pMLUuo-31" style="edgeStyle=orthogonalEdgeStyle;rounded=0;orthogonalLoop=1;jettySize=auto;html=1;shape=link;" parent="1" source="QyRc5C4AdSYWX_pMLUuo-21" target="QyRc5C4AdSYWX_pMLUuo-24" edge="1">
          <mxGeometry relative="1" as="geometry" />
        </mxCell>
        <mxCell id="QyRc5C4AdSYWX_pMLUuo-39" value="N" style="edgeLabel;html=1;align=center;verticalAlign=middle;resizable=0;points=[];" parent="QyRc5C4AdSYWX_pMLUuo-31" vertex="1" connectable="0">
          <mxGeometry x="-0.0734" y="-5" relative="1" as="geometry">
            <mxPoint x="16" y="-4" as="offset" />
          </mxGeometry>
        </mxCell>
        <mxCell id="esIEEUArtfWU6ATxcibH-24" value="1" style="rounded=0;orthogonalLoop=1;jettySize=auto;html=1;exitX=1;exitY=1;exitDx=0;exitDy=0;startArrow=none;startFill=0;endArrow=none;endFill=0;" edge="1" parent="1" source="QyRc5C4AdSYWX_pMLUuo-21" target="esIEEUArtfWU6ATxcibH-23">
          <mxGeometry x="0.0077" y="8" relative="1" as="geometry">
            <mxPoint as="offset" />
          </mxGeometry>
        </mxCell>
        <mxCell id="QyRc5C4AdSYWX_pMLUuo-21" value="&lt;font style=&quot;font-size: 14px;&quot;&gt;Book instance&lt;/font&gt;" style="rounded=0;whiteSpace=wrap;html=1;fillColor=#ffcc99;strokeColor=#36393d;" parent="1" vertex="1">
          <mxGeometry x="530" y="679" width="120" height="60" as="geometry" />
        </mxCell>
        <mxCell id="QyRc5C4AdSYWX_pMLUuo-22" style="edgeStyle=orthogonalEdgeStyle;rounded=0;orthogonalLoop=1;jettySize=auto;html=1;entryX=0.5;entryY=0;entryDx=0;entryDy=0;strokeColor=default;verticalAlign=middle;endArrow=none;endFill=0;" parent="1" source="QyRc5C4AdSYWX_pMLUuo-23" target="QyRc5C4AdSYWX_pMLUuo-24" edge="1">
          <mxGeometry relative="1" as="geometry" />
        </mxCell>
        <mxCell id="QyRc5C4AdSYWX_pMLUuo-38" value="1" style="edgeLabel;html=1;align=center;verticalAlign=middle;resizable=0;points=[];" parent="QyRc5C4AdSYWX_pMLUuo-22" vertex="1" connectable="0">
          <mxGeometry x="-0.0408" relative="1" as="geometry">
            <mxPoint x="10" as="offset" />
          </mxGeometry>
        </mxCell>
        <mxCell id="QyRc5C4AdSYWX_pMLUuo-30" style="edgeStyle=orthogonalEdgeStyle;rounded=0;orthogonalLoop=1;jettySize=auto;html=1;exitX=0.5;exitY=1;exitDx=0;exitDy=0;endArrow=none;endFill=0;shape=link;" parent="1" source="QyRc5C4AdSYWX_pMLUuo-21" target="QyRc5C4AdSYWX_pMLUuo-26" edge="1">
          <mxGeometry relative="1" as="geometry" />
        </mxCell>
        <mxCell id="QyRc5C4AdSYWX_pMLUuo-36" value="N" style="edgeLabel;html=1;align=center;verticalAlign=middle;resizable=0;points=[];" parent="QyRc5C4AdSYWX_pMLUuo-30" vertex="1" connectable="0">
          <mxGeometry x="-0.3167" y="-2" relative="1" as="geometry">
            <mxPoint y="17" as="offset" />
          </mxGeometry>
        </mxCell>
        <mxCell id="esIEEUArtfWU6ATxcibH-11" style="rounded=0;orthogonalLoop=1;jettySize=auto;html=1;entryX=0;entryY=0.5;entryDx=0;entryDy=0;endArrow=none;endFill=0;" edge="1" parent="1" source="QyRc5C4AdSYWX_pMLUuo-23" target="esIEEUArtfWU6ATxcibH-10">
          <mxGeometry relative="1" as="geometry" />
        </mxCell>
        <mxCell id="esIEEUArtfWU6ATxcibH-12" style="rounded=0;orthogonalLoop=1;jettySize=auto;html=1;exitX=0.5;exitY=0;exitDx=0;exitDy=0;entryX=0;entryY=1;entryDx=0;entryDy=0;endArrow=none;endFill=0;" edge="1" parent="1" source="QyRc5C4AdSYWX_pMLUuo-23" target="esIEEUArtfWU6ATxcibH-9">
          <mxGeometry relative="1" as="geometry" />
        </mxCell>
        <mxCell id="esIEEUArtfWU6ATxcibH-15" style="rounded=0;orthogonalLoop=1;jettySize=auto;html=1;exitX=0.5;exitY=0;exitDx=0;exitDy=0;entryX=1;entryY=1;entryDx=0;entryDy=0;endArrow=none;endFill=0;" edge="1" parent="1" source="QyRc5C4AdSYWX_pMLUuo-23" target="esIEEUArtfWU6ATxcibH-7">
          <mxGeometry relative="1" as="geometry" />
        </mxCell>
        <mxCell id="esIEEUArtfWU6ATxcibH-16" style="rounded=0;orthogonalLoop=1;jettySize=auto;html=1;exitX=0;exitY=0.5;exitDx=0;exitDy=0;entryX=1;entryY=0.5;entryDx=0;entryDy=0;endArrow=none;endFill=0;" edge="1" parent="1" source="QyRc5C4AdSYWX_pMLUuo-23" target="esIEEUArtfWU6ATxcibH-6">
          <mxGeometry relative="1" as="geometry" />
        </mxCell>
        <mxCell id="QyRc5C4AdSYWX_pMLUuo-23" value="&lt;font style=&quot;font-size: 14px;&quot;&gt;Book&lt;/font&gt;" style="rounded=0;whiteSpace=wrap;html=1;fillColor=#ffcc99;strokeColor=#36393d;" parent="1" vertex="1">
          <mxGeometry x="481.25" y="460" width="107.5" height="40" as="geometry" />
        </mxCell>
        <mxCell id="QyRc5C4AdSYWX_pMLUuo-24" value="Is a copy of" style="rhombus;whiteSpace=wrap;html=1;perimeterSpacing=1;rounded=0;shadow=0;verticalAlign=middle;fillColor=#cdeb8b;strokeColor=#36393d;" parent="1" vertex="1">
          <mxGeometry x="480" y="539" width="110" height="80" as="geometry" />
        </mxCell>
        <mxCell id="esIEEUArtfWU6ATxcibH-19" style="edgeStyle=orthogonalEdgeStyle;rounded=0;orthogonalLoop=1;jettySize=auto;html=1;exitX=1;exitY=0.5;exitDx=0;exitDy=0;entryX=0;entryY=0.5;entryDx=0;entryDy=0;endArrow=none;endFill=0;" edge="1" parent="1" source="QyRc5C4AdSYWX_pMLUuo-25" target="esIEEUArtfWU6ATxcibH-18">
          <mxGeometry relative="1" as="geometry" />
        </mxCell>
        <mxCell id="esIEEUArtfWU6ATxcibH-20" style="edgeStyle=orthogonalEdgeStyle;rounded=0;orthogonalLoop=1;jettySize=auto;html=1;exitX=0;exitY=0.5;exitDx=0;exitDy=0;entryX=1;entryY=0.5;entryDx=0;entryDy=0;endArrow=none;endFill=0;" edge="1" parent="1" source="QyRc5C4AdSYWX_pMLUuo-25" target="esIEEUArtfWU6ATxcibH-17">
          <mxGeometry relative="1" as="geometry" />
        </mxCell>
        <mxCell id="QyRc5C4AdSYWX_pMLUuo-25" value="&lt;font style=&quot;font-size: 14px;&quot;&gt;Publisher&lt;/font&gt;" style="rounded=0;whiteSpace=wrap;html=1;fillColor=#ffcc99;strokeColor=#36393d;" parent="1" vertex="1">
          <mxGeometry x="487.5" y="920" width="95" height="40" as="geometry" />
        </mxCell>
        <mxCell id="QyRc5C4AdSYWX_pMLUuo-32" style="edgeStyle=orthogonalEdgeStyle;rounded=0;orthogonalLoop=1;jettySize=auto;html=1;entryX=0.5;entryY=0;entryDx=0;entryDy=0;endArrow=none;endFill=0;" parent="1" source="QyRc5C4AdSYWX_pMLUuo-26" target="QyRc5C4AdSYWX_pMLUuo-25" edge="1">
          <mxGeometry relative="1" as="geometry" />
        </mxCell>
        <mxCell id="QyRc5C4AdSYWX_pMLUuo-37" value="1" style="edgeLabel;html=1;align=center;verticalAlign=middle;resizable=0;points=[];" parent="QyRc5C4AdSYWX_pMLUuo-32" vertex="1" connectable="0">
          <mxGeometry x="-0.3333" y="-2" relative="1" as="geometry">
            <mxPoint x="12" y="-1" as="offset" />
          </mxGeometry>
        </mxCell>
        <mxCell id="QyRc5C4AdSYWX_pMLUuo-26" value="Published by" style="rhombus;whiteSpace=wrap;html=1;perimeterSpacing=1;rounded=0;shadow=0;verticalAlign=middle;fillColor=#cdeb8b;strokeColor=#36393d;" parent="1" vertex="1">
          <mxGeometry x="480" y="810" width="110" height="80" as="geometry" />
        </mxCell>
        <mxCell id="QyRc5C4AdSYWX_pMLUuo-35" style="edgeStyle=orthogonalEdgeStyle;rounded=0;orthogonalLoop=1;jettySize=auto;html=1;endArrow=none;endFill=0;" parent="1" source="QyRc5C4AdSYWX_pMLUuo-33" target="QyRc5C4AdSYWX_pMLUuo-21" edge="1">
          <mxGeometry relative="1" as="geometry" />
        </mxCell>
        <mxCell id="QyRc5C4AdSYWX_pMLUuo-41" value="N" style="edgeLabel;html=1;align=center;verticalAlign=middle;resizable=0;points=[];" parent="QyRc5C4AdSYWX_pMLUuo-35" vertex="1" connectable="0">
          <mxGeometry x="0.1222" y="-1" relative="1" as="geometry">
            <mxPoint x="-3" y="10" as="offset" />
          </mxGeometry>
        </mxCell>
        <mxCell id="QyRc5C4AdSYWX_pMLUuo-33" value="Contains" style="rhombus;whiteSpace=wrap;html=1;perimeterSpacing=1;rounded=0;shadow=0;verticalAlign=middle;fillColor=#cdeb8b;strokeColor=#36393d;" parent="1" vertex="1">
          <mxGeometry x="400" y="683.5" width="71" height="51" as="geometry" />
        </mxCell>
        <mxCell id="QyRc5C4AdSYWX_pMLUuo-46" style="edgeStyle=orthogonalEdgeStyle;rounded=0;orthogonalLoop=1;jettySize=auto;html=1;endArrow=none;endFill=0;" parent="1" source="QyRc5C4AdSYWX_pMLUuo-44" target="QyRc5C4AdSYWX_pMLUuo-45" edge="1">
          <mxGeometry relative="1" as="geometry" />
        </mxCell>
        <mxCell id="QyRc5C4AdSYWX_pMLUuo-48" value="1" style="edgeLabel;html=1;align=center;verticalAlign=middle;resizable=0;points=[];" parent="QyRc5C4AdSYWX_pMLUuo-46" vertex="1" connectable="0">
          <mxGeometry x="-0.4937" y="-1" relative="1" as="geometry">
            <mxPoint x="-20" y="12" as="offset" />
          </mxGeometry>
        </mxCell>
        <mxCell id="QyRc5C4AdSYWX_pMLUuo-58" style="rounded=0;orthogonalLoop=1;jettySize=auto;html=1;endArrow=none;endFill=0;" parent="1" source="QyRc5C4AdSYWX_pMLUuo-44" target="QyRc5C4AdSYWX_pMLUuo-55" edge="1">
          <mxGeometry relative="1" as="geometry" />
        </mxCell>
        <mxCell id="QyRc5C4AdSYWX_pMLUuo-59" style="rounded=0;orthogonalLoop=1;jettySize=auto;html=1;entryX=0;entryY=0.5;entryDx=0;entryDy=0;endArrow=none;endFill=0;" parent="1" target="QyRc5C4AdSYWX_pMLUuo-56" edge="1">
          <mxGeometry relative="1" as="geometry">
            <mxPoint x="1040" y="709" as="sourcePoint" />
          </mxGeometry>
        </mxCell>
        <mxCell id="esIEEUArtfWU6ATxcibH-30" style="rounded=0;orthogonalLoop=1;jettySize=auto;html=1;exitX=1;exitY=0.5;exitDx=0;exitDy=0;entryX=0;entryY=0.5;entryDx=0;entryDy=0;" edge="1" parent="1" source="QyRc5C4AdSYWX_pMLUuo-44" target="QyRc5C4AdSYWX_pMLUuo-54">
          <mxGeometry relative="1" as="geometry" />
        </mxCell>
        <mxCell id="esIEEUArtfWU6ATxcibH-31" style="rounded=0;orthogonalLoop=1;jettySize=auto;html=1;exitX=0.5;exitY=1;exitDx=0;exitDy=0;endArrow=none;endFill=0;" edge="1" parent="1" source="QyRc5C4AdSYWX_pMLUuo-44" target="QyRc5C4AdSYWX_pMLUuo-52">
          <mxGeometry relative="1" as="geometry" />
        </mxCell>
        <mxCell id="esIEEUArtfWU6ATxcibH-33" style="rounded=0;orthogonalLoop=1;jettySize=auto;html=1;exitX=0.5;exitY=0;exitDx=0;exitDy=0;entryX=0.5;entryY=1;entryDx=0;entryDy=0;endArrow=none;endFill=0;" edge="1" parent="1" source="QyRc5C4AdSYWX_pMLUuo-44" target="esIEEUArtfWU6ATxcibH-32">
          <mxGeometry relative="1" as="geometry" />
        </mxCell>
        <mxCell id="QyRc5C4AdSYWX_pMLUuo-44" value="Reader" style="rounded=0;whiteSpace=wrap;html=1;" parent="1" vertex="1">
          <mxGeometry x="920" y="679" width="120" height="60" as="geometry" />
        </mxCell>
        <mxCell id="QyRc5C4AdSYWX_pMLUuo-47" style="edgeStyle=orthogonalEdgeStyle;rounded=0;orthogonalLoop=1;jettySize=auto;html=1;entryX=1;entryY=0.5;entryDx=0;entryDy=0;endArrow=none;endFill=0;" parent="1" source="QyRc5C4AdSYWX_pMLUuo-45" target="QyRc5C4AdSYWX_pMLUuo-21" edge="1">
          <mxGeometry relative="1" as="geometry" />
        </mxCell>
        <mxCell id="QyRc5C4AdSYWX_pMLUuo-49" value="N" style="edgeLabel;html=1;align=center;verticalAlign=middle;resizable=0;points=[];" parent="QyRc5C4AdSYWX_pMLUuo-47" vertex="1" connectable="0">
          <mxGeometry x="-0.038" y="-1" relative="1" as="geometry">
            <mxPoint y="12" as="offset" />
          </mxGeometry>
        </mxCell>
        <mxCell id="QyRc5C4AdSYWX_pMLUuo-51" style="edgeStyle=orthogonalEdgeStyle;rounded=0;orthogonalLoop=1;jettySize=auto;html=1;endArrow=none;endFill=0;" parent="1" source="QyRc5C4AdSYWX_pMLUuo-45" target="QyRc5C4AdSYWX_pMLUuo-50" edge="1">
          <mxGeometry relative="1" as="geometry" />
        </mxCell>
        <mxCell id="QyRc5C4AdSYWX_pMLUuo-45" value="Borrows" style="rhombus;whiteSpace=wrap;html=1;perimeterSpacing=1;rounded=0;shadow=0;verticalAlign=middle;fillColor=#cdeb8b;strokeColor=#36393d;" parent="1" vertex="1">
          <mxGeometry x="730" y="669" width="110" height="80" as="geometry" />
        </mxCell>
        <mxCell id="QyRc5C4AdSYWX_pMLUuo-50" value="Return date" style="ellipse;whiteSpace=wrap;html=1;fillColor=#ffff88;strokeColor=#36393d;" parent="1" vertex="1">
          <mxGeometry x="725" y="600" width="120" height="40" as="geometry" />
        </mxCell>
        <mxCell id="QyRc5C4AdSYWX_pMLUuo-52" value="Last name" style="ellipse;whiteSpace=wrap;html=1;fillColor=#ffff88;strokeColor=#36393d;" parent="1" vertex="1">
          <mxGeometry x="940" y="780" width="100" height="30" as="geometry" />
        </mxCell>
        <mxCell id="QyRc5C4AdSYWX_pMLUuo-54" value="First name" style="ellipse;whiteSpace=wrap;html=1;fillColor=#ffff88;strokeColor=#36393d;" parent="1" vertex="1">
          <mxGeometry x="1100" y="739" width="85" height="30" as="geometry" />
        </mxCell>
        <mxCell id="QyRc5C4AdSYWX_pMLUuo-55" value="Address" style="ellipse;whiteSpace=wrap;html=1;fillColor=#ffff88;strokeColor=#36393d;" parent="1" vertex="1">
          <mxGeometry x="1120" y="694" width="80" height="30" as="geometry" />
        </mxCell>
        <mxCell id="QyRc5C4AdSYWX_pMLUuo-56" value="Birthday" style="ellipse;whiteSpace=wrap;html=1;fillColor=#ffff88;strokeColor=#36393d;" parent="1" vertex="1">
          <mxGeometry x="1090" y="648" width="70" height="31" as="geometry" />
        </mxCell>
        <mxCell id="esIEEUArtfWU6ATxcibH-1" value="&lt;u&gt;CopyNumber&lt;/u&gt;" style="ellipse;whiteSpace=wrap;html=1;fillColor=#ffff88;strokeColor=#36393d;" vertex="1" parent="1">
          <mxGeometry x="601.25" y="569" width="85" height="31" as="geometry" />
        </mxCell>
        <mxCell id="esIEEUArtfWU6ATxcibH-2" value="Position on&amp;nbsp;&lt;div&gt;a Shelf&lt;/div&gt;" style="ellipse;whiteSpace=wrap;html=1;fillColor=#ffff88;strokeColor=#36393d;" vertex="1" parent="1">
          <mxGeometry x="593.75" y="790" width="92.5" height="40" as="geometry" />
        </mxCell>
        <mxCell id="esIEEUArtfWU6ATxcibH-3" style="rounded=0;orthogonalLoop=1;jettySize=auto;html=1;exitX=0.75;exitY=0;exitDx=0;exitDy=0;entryX=0.405;entryY=0.97;entryDx=0;entryDy=0;entryPerimeter=0;endArrow=none;endFill=0;" edge="1" parent="1" source="QyRc5C4AdSYWX_pMLUuo-21" target="esIEEUArtfWU6ATxcibH-1">
          <mxGeometry relative="1" as="geometry" />
        </mxCell>
        <mxCell id="esIEEUArtfWU6ATxcibH-4" style="rounded=0;orthogonalLoop=1;jettySize=auto;html=1;exitX=0.75;exitY=1;exitDx=0;exitDy=0;entryX=0.5;entryY=0;entryDx=0;entryDy=0;endArrow=none;endFill=0;" edge="1" parent="1" source="QyRc5C4AdSYWX_pMLUuo-21" target="esIEEUArtfWU6ATxcibH-2">
          <mxGeometry relative="1" as="geometry" />
        </mxCell>
        <mxCell id="esIEEUArtfWU6ATxcibH-6" value="&lt;u&gt;ISBN&lt;/u&gt;" style="ellipse;whiteSpace=wrap;html=1;fillColor=#ffff88;strokeColor=#36393d;" vertex="1" parent="1">
          <mxGeometry x="379" y="470" width="70" height="40" as="geometry" />
        </mxCell>
        <mxCell id="esIEEUArtfWU6ATxcibH-7" value="Year" style="ellipse;whiteSpace=wrap;html=1;fillColor=#ffff88;strokeColor=#36393d;" vertex="1" parent="1">
          <mxGeometry x="414" y="400" width="60" height="40" as="geometry" />
        </mxCell>
        <mxCell id="esIEEUArtfWU6ATxcibH-8" value="Title" style="ellipse;whiteSpace=wrap;html=1;fillColor=#ffff88;strokeColor=#36393d;" vertex="1" parent="1">
          <mxGeometry x="510" y="380" width="60" height="40" as="geometry" />
        </mxCell>
        <mxCell id="esIEEUArtfWU6ATxcibH-9" value="Author" style="ellipse;whiteSpace=wrap;html=1;fillColor=#ffff88;strokeColor=#36393d;" vertex="1" parent="1">
          <mxGeometry x="600" y="400" width="80" height="40" as="geometry" />
        </mxCell>
        <mxCell id="esIEEUArtfWU6ATxcibH-10" value="Number-of-pages" style="ellipse;whiteSpace=wrap;html=1;fillColor=#ffff88;strokeColor=#36393d;" vertex="1" parent="1">
          <mxGeometry x="625" y="470" width="100" height="40" as="geometry" />
        </mxCell>
        <mxCell id="esIEEUArtfWU6ATxcibH-13" style="rounded=0;orthogonalLoop=1;jettySize=auto;html=1;exitX=0.5;exitY=0;exitDx=0;exitDy=0;entryX=0.408;entryY=1.004;entryDx=0;entryDy=0;entryPerimeter=0;endArrow=none;endFill=0;" edge="1" parent="1" source="QyRc5C4AdSYWX_pMLUuo-23" target="esIEEUArtfWU6ATxcibH-8">
          <mxGeometry relative="1" as="geometry" />
        </mxCell>
        <mxCell id="esIEEUArtfWU6ATxcibH-17" value="Name" style="ellipse;whiteSpace=wrap;html=1;fillColor=#ffff88;strokeColor=#36393d;" vertex="1" parent="1">
          <mxGeometry x="390" y="920" width="70" height="40" as="geometry" />
        </mxCell>
        <mxCell id="esIEEUArtfWU6ATxcibH-18" value="Address" style="ellipse;whiteSpace=wrap;html=1;fillColor=#ffff88;strokeColor=#36393d;" vertex="1" parent="1">
          <mxGeometry x="620" y="920" width="85" height="40" as="geometry" />
        </mxCell>
        <mxCell id="esIEEUArtfWU6ATxcibH-25" value="" style="edgeStyle=orthogonalEdgeStyle;rounded=0;orthogonalLoop=1;jettySize=auto;html=1;endArrow=none;endFill=0;shape=link;" edge="1" parent="1" source="esIEEUArtfWU6ATxcibH-22" target="esIEEUArtfWU6ATxcibH-23">
          <mxGeometry relative="1" as="geometry" />
        </mxCell>
        <mxCell id="esIEEUArtfWU6ATxcibH-28" style="rounded=0;orthogonalLoop=1;jettySize=auto;html=1;exitX=1;exitY=0.5;exitDx=0;exitDy=0;entryX=0;entryY=0.5;entryDx=0;entryDy=0;endArrow=none;endFill=0;" edge="1" parent="1" source="esIEEUArtfWU6ATxcibH-22" target="esIEEUArtfWU6ATxcibH-27">
          <mxGeometry relative="1" as="geometry" />
        </mxCell>
        <mxCell id="esIEEUArtfWU6ATxcibH-29" style="rounded=0;orthogonalLoop=1;jettySize=auto;html=1;exitX=0.5;exitY=1;exitDx=0;exitDy=0;entryX=0.5;entryY=0;entryDx=0;entryDy=0;endArrow=none;endFill=0;" edge="1" parent="1" source="esIEEUArtfWU6ATxcibH-22" target="esIEEUArtfWU6ATxcibH-26">
          <mxGeometry relative="1" as="geometry" />
        </mxCell>
        <mxCell id="esIEEUArtfWU6ATxcibH-22" value="&lt;font style=&quot;font-size: 14px;&quot;&gt;Category&lt;/font&gt;" style="rounded=0;whiteSpace=wrap;html=1;fillColor=#ffcc99;strokeColor=#36393d;portConstraintRotation=0;" vertex="1" parent="1">
          <mxGeometry x="800" y="900" width="100" height="30" as="geometry" />
        </mxCell>
        <mxCell id="esIEEUArtfWU6ATxcibH-23" value="Has a" style="rhombus;whiteSpace=wrap;html=1;fillColor=#cdeb8b;strokeColor=#36393d;" vertex="1" parent="1">
          <mxGeometry x="730" y="800" width="110" height="60" as="geometry" />
        </mxCell>
        <mxCell id="esIEEUArtfWU6ATxcibH-26" value="&lt;u&gt;Name&lt;/u&gt;" style="ellipse;whiteSpace=wrap;html=1;fillColor=#ffff88;strokeColor=#36393d;" vertex="1" parent="1">
          <mxGeometry x="810" y="960" width="80" height="30" as="geometry" />
        </mxCell>
        <mxCell id="esIEEUArtfWU6ATxcibH-27" value="ParentCategory&lt;div&gt;Name&lt;/div&gt;" style="ellipse;whiteSpace=wrap;html=1;fillColor=#ffff88;strokeColor=#36393d;" vertex="1" parent="1">
          <mxGeometry x="940" y="900" width="120" height="50" as="geometry" />
        </mxCell>
        <mxCell id="esIEEUArtfWU6ATxcibH-32" value="&lt;u&gt;Reader-number&lt;/u&gt;" style="ellipse;whiteSpace=wrap;html=1;fillColor=#ffff88;strokeColor=#36393d;" vertex="1" parent="1">
          <mxGeometry x="930" y="598" width="110" height="50" as="geometry" />
        </mxCell>
        <mxCell id="esIEEUArtfWU6ATxcibH-36" value="" style="swimlane;startSize=0;" vertex="1" parent="1">
          <mxGeometry x="798" y="897" width="104" height="36" as="geometry" />
        </mxCell>
      </root>
    </mxGraphModel>
  </diagram>
</mxfile>
